<svg version="1.1" xmlns="http://www.w3.org/2000/svg" xmlns:xlink="http://www.w3.org/1999/xlink" width="388.72159" height="115.07306" viewBox="0,0,388.72159,115.07306"><defs><linearGradient x1="3.54578" y1="397.52437" x2="392.26574" y2="397.52437" gradientUnits="userSpaceOnUse" id="color-1"><stop offset="0" stop-color="#27aae1"/><stop offset="1" stop-color="#115489"/></linearGradient><linearGradient x1="18.13062" y1="397.52437" x2="377.67605" y2="397.52437" gradientUnits="userSpaceOnUse" id="color-2"><stop offset="0" stop-color="#ff0000"/><stop offset="1" stop-color="#29ff00"/></linearGradient></defs><g transform="translate(-3.54545,-339.98739)"><g stroke="none" stroke-miterlimit="10"><path d="M392.26704,397.52282c0,31.72668 -37.9943,57.53764 -84.68948,57.53764h-219.34587c-46.69518,0 -84.68624,-25.80874 -84.68624,-57.53764c0,-31.72449 37.98782,-57.53542 84.68624,-57.53542h219.34587c46.69518,0 84.68948,25.81093 84.68948,57.53542z" fill="url(#color-1)"/><path d="M377.67702,397.52282c0,26.30392 -31.38279,47.62745 -70.09946,47.62745h-219.34587c-38.71667,0 -70.1027,-21.32353 -70.1027,-47.62745v0c0,-26.30172 31.38603,-47.62523 70.1027,-47.62523h219.34587c38.71667,0 70.09946,21.32352 70.09946,47.62523z" fill="url(#color-2)"/><text transform="translate(27.87006,368.00464) scale(0.5,0.5)" font-size="40" xml:space="preserve" fill="#ffffff" font-family="Sans Serif" font-weight="normal" text-anchor="start"><tspan x="0" dy="0">ежедневнвая награда(Бесплатно)</tspan></text><text transform="translate(115.11266,435.58562) scale(0.83082,0.83082)" font-size="40" xml:space="preserve" fill="#ffffff" font-family="Sans Serif" font-weight="normal" text-anchor="start"><tspan x="0" dy="0">100-10000</tspan></text></g></g></svg>