<svg version="1.1" xmlns="http://www.w3.org/2000/svg" xmlns:xlink="http://www.w3.org/1999/xlink" width="388.72159" height="67.4745" viewBox="0,0,388.72159,67.4745"><defs><linearGradient x1="3.54578" y1="408.75026" x2="392.26574" y2="408.75026" gradientUnits="userSpaceOnUse" id="color-1"><stop offset="0" stop-color="#27aae1"/><stop offset="1" stop-color="#115489"/></linearGradient><linearGradient x1="18.13062" y1="408.75026" x2="377.67605" y2="408.75026" gradientUnits="userSpaceOnUse" id="color-2"><stop offset="0" stop-color="#ff0000"/><stop offset="1" stop-color="#29ff00"/></linearGradient></defs><g transform="translate(-3.54545,-375.01275)"><g stroke="none" stroke-miterlimit="10"><path d="M392.26704,408.74935c0,18.60333 -37.9943,33.7379 -84.68948,33.7379h-219.34587c-46.69518,0 -84.68624,-15.13327 -84.68624,-33.7379c0,-18.60204 37.98782,-33.7366 84.68624,-33.7366h219.34587c46.69518,0 84.68948,15.13456 84.68948,33.7366z" fill="url(#color-1)"/><path d="M377.67702,408.74935c0,15.42363 -31.38279,27.92694 -70.09946,27.92694h-219.34587c-38.71667,0 -70.1027,-12.50331 -70.1027,-27.92694v0c0,-15.42234 31.38603,-27.92564 70.1027,-27.92564h219.34587c38.71667,0 70.09946,12.50331 70.09946,27.92564z" fill="url(#color-2)"/><text transform="translate(106.44003,398.99534) scale(0.5,0.5)" font-size="40" xml:space="preserve" fill="#ffffff" font-family="Sans Serif" font-weight="normal" text-anchor="start"><tspan x="0" dy="0">Супер курсор(200)</tspan></text><text transform="translate(147.76002,432) scale(0.5,0.5)" font-size="40" xml:space="preserve" fill="#ffffff" font-family="Sans Serif" font-weight="normal" text-anchor="start"><tspan x="0" dy="0">+50(В сек)</tspan></text></g></g></svg>