<svg version="1.1" xmlns="http://www.w3.org/2000/svg" xmlns:xlink="http://www.w3.org/1999/xlink" width="179.46753" height="67.4745" viewBox="0,0,179.46753,67.4745"><defs><linearGradient x1="106.76641" y1="426.00026" x2="286.23319" y2="426.00026" gradientUnits="userSpaceOnUse" id="color-1"><stop offset="0" stop-color="#27aae1"/><stop offset="1" stop-color="#115489"/></linearGradient><linearGradient x1="113.50004" y1="426.00026" x2="279.49733" y2="426.00026" gradientUnits="userSpaceOnUse" id="color-2"><stop offset="0" stop-color="#ff0000"/><stop offset="1" stop-color="#29ff00"/></linearGradient></defs><g transform="translate(-106.76625,-392.26275)"><g stroke="none" stroke-miterlimit="10"><path d="M286.23379,425.99935c0,18.60333 -17.54146,33.7379 -39.09999,33.7379h-101.26904c-21.55854,0 -39.0985,-15.13327 -39.0985,-33.7379c0,-18.60204 17.53847,-33.7366 39.0985,-33.7366h101.26904c21.55854,0 39.09999,15.13456 39.09999,33.7366z" fill="url(#color-1)"/><path d="M279.49778,425.99935c0,15.42363 -14.48901,27.92694 -32.36398,27.92694h-101.26904c-17.87497,0 -32.36547,-12.50331 -32.36547,-27.92694v0c0,-15.42234 14.49051,-27.92564 32.36547,-27.92564h101.26904c17.87497,0 32.36398,12.50331 32.36398,27.92564z" fill="url(#color-2)"/><text transform="translate(111.14744,421.41825) scale(0.38106,0.38106)" font-size="40" xml:space="preserve" fill="#ffffff" font-family="Sans Serif" font-weight="normal" text-anchor="start"><tspan x="0" dy="0">Майнинг машина(200)</tspan></text><text transform="translate(148.40002,447.875) scale(0.5,0.5)" font-size="40" xml:space="preserve" fill="#ffffff" font-family="Sans Serif" font-weight="normal" text-anchor="start"><tspan x="0" dy="0">+50(в сек)</tspan></text></g></g></svg>