<svg version="1.1" xmlns="http://www.w3.org/2000/svg" xmlns:xlink="http://www.w3.org/1999/xlink" width="271.24223" height="115.2345" viewBox="0,0,271.24223,115.2345"><defs><linearGradient x1="60.88157" y1="426.00042" x2="332.12081" y2="426.00042" gradientUnits="userSpaceOnUse" id="color-1"><stop offset="0.012" stop-color="#a7a9ac"/><stop offset="1" stop-color="#414042"/></linearGradient><linearGradient x1="71.05483" y1="425.99852" x2="321.94487" y2="425.99852" gradientUnits="userSpaceOnUse" id="color-2"><stop offset="0" stop-color="#ff0000"/><stop offset="1" stop-color="#0aff00"/></linearGradient></defs><g transform="translate(-60.87889,-368.38275)"><g stroke="none" stroke-miterlimit="10"><path d="M332.12111,465.48013c0,10.01599 -11.48743,18.13712 -25.6485,18.13712h-219.9482c-14.16405,0 -25.64552,-8.12324 -25.64552,-18.13712v-78.96236c0,-10.01599 11.48147,-18.13502 25.64552,-18.13502h219.94522c14.17002,0 25.6485,8.11902 25.6485,18.13502v78.96236z" fill="url(#color-1)"/><path d="M321.94219,386.51777v78.96025c0,6.03236 -6.93597,10.93918 -15.47256,10.93918h-219.94522c-8.52764,0 -15.46958,-4.90682 -15.46958,-10.93918v-78.96236c0,-6.03236 6.94194,-10.93918 15.46958,-10.93918h219.94522c8.53658,0 15.47256,4.90893 15.47256,10.94129z" fill="url(#color-2)"/><text transform="translate(127.92135,396.65938) scale(0.6097,0.6097)" font-size="40" xml:space="preserve" fill="#ffffff" font-family="Sans Serif" font-weight="normal" text-anchor="start"><tspan x="0" dy="0">Все и сразу</tspan></text><text transform="translate(71.12752,420.14375) scale(0.5,0.5)" font-size="40" xml:space="preserve" fill="#ffffff" font-family="Sans Serif" font-weight="normal" text-anchor="start"><tspan x="0" dy="0">+100(за клик)</tspan></text><text transform="translate(71.25252,446.51875) scale(0.5,0.5)" font-size="40" xml:space="preserve" fill="#ffffff" font-family="Sans Serif" font-weight="normal" text-anchor="start"><tspan x="0" dy="0">+100    (в  сек)</tspan></text><text transform="translate(170.53125,470.85168) scale(0.5,0.5)" font-size="40" xml:space="preserve" fill="#ffffff" font-family="Sans Serif" font-weight="normal" text-anchor="start"><tspan x="0" dy="0">цена: 1000 coin</tspan></text></g></g></svg>