<svg version="1.1" xmlns="http://www.w3.org/2000/svg" xmlns:xlink="http://www.w3.org/1999/xlink" width="395.4318" height="192.64695" viewBox="0,0,395.4318,192.64695"><g transform="translate(1.22656,1.68232)"><g stroke="none" stroke-miterlimit="10"><path d="M199.52344,135.81381v-47h194.36538v47z" fill="#ffffff" stroke-width="0"/><path d="M-1.22656,135.81381v-47h194.61538v47z" fill="#ffffff" stroke-width="0"/><text transform="translate(-0.1582,128.95778) scale(0.5,0.5)" font-size="40" xml:space="preserve" fill="#000000" stroke-width="1" font-family="Sans Serif" font-weight="normal" text-anchor="start"><tspan x="0" dy="0">клик</tspan></text><text transform="translate(14.0918,111.45778) scale(0.5,0.5)" font-size="40" xml:space="preserve" fill="#000000" stroke-width="1" font-family="Sans Serif" font-weight="normal" text-anchor="start"><tspan x="0" dy="0">за</tspan></text><text transform="translate(47.8418,123.13263) scale(1.02656,1.02656)" font-size="40" xml:space="preserve" fill="#000000" stroke-width="1" font-family="Sans Serif" font-weight="normal" text-anchor="start"><tspan x="0" dy="0">:</tspan></text><text transform="translate(211.8342,110.26332) scale(0.5,0.5)" font-size="40" xml:space="preserve" fill="#000000" stroke-width="1" font-family="Sans Serif" font-weight="normal" text-anchor="start"><tspan x="0" dy="0">в</tspan></text><text transform="translate(202.50087,128.48555) scale(0.5,0.5)" font-size="40" xml:space="preserve" fill="#000000" stroke-width="1" font-family="Sans Serif" font-weight="normal" text-anchor="start"><tspan x="0" dy="0">сек</tspan></text><text transform="translate(237.28625,123.46596) scale(1.02656,1.02656)" font-size="40" xml:space="preserve" fill="#000000" stroke-width="1" font-family="Sans Serif" font-weight="normal" text-anchor="start"><tspan x="0" dy="0">:</tspan></text><path d="M55.19231,190.26257v-47h282.61538v47z" fill="#ffffff" stroke-width="0"/><text transform="translate(55.3981,170.90886) scale(0.5,0.5)" font-size="40" xml:space="preserve" fill="#000000" stroke-width="1" font-family="Sans Serif" font-weight="normal" text-anchor="start"><tspan x="0" dy="0">coin</tspan></text><text transform="translate(94.79832,178.13263) scale(1.02656,1.02656)" font-size="40" xml:space="preserve" fill="#000000" stroke-width="1" font-family="Sans Serif" font-weight="normal" text-anchor="start"><tspan x="0" dy="0">:</tspan></text><path d="M-1.18942,93.50126v-95.18358h194.61777v95.18358z" fill="#ffffff" stroke-width="0"/><path d="M199.58747,91.70923v-92.25639h194.61777v92.25639z" fill="#ffffff" stroke-width="0"/></g></g></svg>